<svg preserveAspectRatio="none" width="100%" height="100%" overflow="visible" style="display: block;" viewBox="0 0 300.924 345.851" fill="none" xmlns="http://www.w3.org/2000/svg">
<g id="Group 15498">
<path id="Vector" d="M204.29 126.139L204.198 126.078L165.371 103.659C161.231 101.267 156.63 100.04 152.03 99.9483C151.938 99.9483 151.846 99.9483 151.754 99.9483C146.755 99.8563 141.725 101.114 137.248 103.69L135.622 104.641L98.9731 125.802C89.6192 131.046 84.3135 140.462 84.3135 151.196V194.868C84.3135 194.868 84.3135 195.021 84.3135 195.144C84.3135 196.003 84.4055 196.861 84.4669 197.72C84.5282 198.272 84.5895 198.855 84.6815 199.499C85.2029 202.781 86.2457 205.939 87.8098 208.822C90.2939 213.392 94.0048 217.287 98.6664 219.986L117.129 230.658L135.592 241.331L136.849 242.067L137.217 242.282C138.352 242.926 139.517 243.478 140.683 243.969C148.656 247.22 157.765 246.667 165.34 242.282L203.891 220.016C208.338 217.471 211.926 213.821 214.41 209.528C216.894 205.234 218.275 200.327 218.305 195.175V150.398C218.305 140.4 212.969 131.169 204.29 126.201V126.139Z" stroke="var(--stroke-0, #000091)" stroke-width="3.06687" stroke-linejoin="round"/>
<g id="Group">
<path id="Vector_2" d="M135.553 257.863L84.2438 228.237V288.133V305.645L151.255 344.318V266.941L135.553 257.863Z" stroke="var(--stroke-0, #000091)" stroke-width="3.06687" stroke-linejoin="round"/>
<path id="Vector_3" d="M218.518 117.794L165.369 87.0941V103.655L204.196 126.074C212.937 131.134 218.304 140.458 218.304 150.548V195.079L232.381 203.206V125.829L218.518 117.824V117.794Z" stroke="var(--stroke-0, #000091)" stroke-width="3.06687" stroke-linejoin="round"/>
<path id="Vector_4" d="M1.53346 87.0941V164.502L15.9171 172.813L68.5447 203.206V142.42V125.798L1.53346 87.0941Z" stroke="var(--stroke-0, #000091)" stroke-width="3.06687" stroke-linejoin="round"/>
<path id="Vector_5" d="M214.408 209.435C211.924 213.728 208.336 217.347 203.889 219.923L218.273 228.235V289.081L232.35 297.208V219.831L214.408 209.465V209.435Z" stroke="var(--stroke-0, #000091)" stroke-width="3.06687" stroke-linejoin="round"/>
<path id="Vector_6" d="M151.715 99.9168H151.807V78.9087L84.7958 40.2047V57.7779L135.583 87.0972V104.578L137.209 103.628C141.686 101.052 146.716 99.7941 151.715 99.8861V99.9168Z" stroke="var(--stroke-0, #000091)" stroke-width="3.06687" stroke-linejoin="round"/>
<path id="Vector_7" d="M1.53346 181.125V258.502L68.5447 297.206V219.798L1.53346 181.125Z" stroke="var(--stroke-0, #000091)" stroke-width="3.06687" stroke-linejoin="round"/>
</g>
<g id="Group_2">
<path id="Vector_8" d="M232.349 297.206L299.391 258.502V181.125L232.349 219.798V297.206Z" stroke="var(--stroke-0, #000091)" stroke-width="3.06687" stroke-linejoin="round"/>
<path id="Vector_9" d="M151.258 266.941V344.318L218.3 305.645V289.084V228.237L165.611 258.66L151.258 266.941Z" stroke="var(--stroke-0, #000091)" stroke-width="3.06687" stroke-linejoin="round"/>
<path id="Vector_10" d="M84.2546 151.166V150.491C84.2546 140.432 89.6216 131.139 98.3316 126.11L98.9143 125.772L135.594 104.611V87.1299L84.8066 116.449L68.5828 125.834V203.211L84.2852 194.133V151.166H84.2546Z" stroke="var(--stroke-0, #000091)" stroke-width="3.06687" stroke-linejoin="round"/>
<path id="Vector_11" d="M232.349 125.798V142.42V203.206L285.007 172.813L299.391 164.502V87.0941L232.349 125.798Z" stroke="var(--stroke-0, #000091)" stroke-width="3.06687" stroke-linejoin="round"/>
<path id="Vector_12" d="M218.822 56.2138V40.2047L151.81 78.9087V99.8861L151.994 99.9474C156.625 100.07 161.226 101.266 165.335 103.658V87.0972L218.822 56.2138Z" stroke="var(--stroke-0, #000091)" stroke-width="3.06687" stroke-linejoin="round"/>
<path id="Vector_13" d="M87.7773 208.759H87.7466L68.5481 219.8V297.177L84.2504 288.099V228.203L98.6341 219.892C93.9724 217.193 90.2615 213.298 87.7773 208.728V208.759Z" stroke="var(--stroke-0, #000091)" stroke-width="3.06687" stroke-linejoin="round"/>
</g>
<g id="Group_3">
<path id="Vector_14" d="M84.7683 57.7768L68.5446 48.4228L1.53344 87.0961L68.5446 125.8L84.7683 116.415L135.556 87.0961L84.7683 57.7768Z" stroke="var(--stroke-0, #000091)" stroke-width="3.06687" stroke-linejoin="round"/>
<path id="Vector_15" d="M218.823 40.2374L151.812 1.53344L84.7697 40.2374L151.812 78.9106L218.823 40.2374Z" stroke="var(--stroke-0, #000091)" stroke-width="3.06687" stroke-linejoin="round"/>
<path id="Vector_16" d="M165.334 87.0961L218.514 117.795L232.346 125.8L299.387 87.0961L232.346 48.4228L218.821 56.2126L165.334 87.0961Z" stroke="var(--stroke-0, #000091)" stroke-width="3.06687" stroke-linejoin="round"/>
<path id="Vector_17" d="M232.341 203.21L218.264 195.083C218.264 200.235 216.854 205.173 214.369 209.466L232.311 219.832L299.322 181.128L284.938 172.817L232.311 203.21H232.341Z" stroke="var(--stroke-0, #000091)" stroke-width="3.06687" stroke-linejoin="round"/>
<path id="Vector_18" d="M140.679 243.876C139.482 243.385 138.317 242.833 137.213 242.189L136.845 241.974L135.588 241.238L117.125 230.566L98.6623 219.893L84.2787 228.204L135.588 257.83L151.29 266.908L165.612 258.628L218.301 228.204L203.917 219.893L165.367 242.158C157.792 246.544 148.683 247.096 140.709 243.845L140.679 243.876Z" stroke="var(--stroke-0, #000091)" stroke-width="3.06687" stroke-linejoin="round"/>
<path id="Vector_19" d="M84.247 195.113C84.247 195.113 84.247 195.052 84.247 195.021V194.837C84.247 194.408 84.247 194.132 84.247 194.132L68.5446 203.21L15.9171 172.817L1.53344 181.128L68.5446 219.832L87.7432 208.761C85.9337 205.847 85.0751 202.351 84.6457 199.499C84.5537 198.916 84.4923 198.333 84.431 197.72C84.339 196.647 84.2776 195.757 84.2776 195.144L84.247 195.113Z" stroke="var(--stroke-0, #000091)" stroke-width="3.06687" stroke-linejoin="round"/>
</g>
</g>
</svg>
