<svg preserveAspectRatio="xMidYMid meet" width="89" height="102" viewBox="0 0 89 101.955" fill="none" xmlns="http://www.w3.org/2000/svg">
<g id="Frame 33">
<g id="Vector">
<path d="M64.3854 44.3886C64.3854 44.3886 64.3854 44.3377 64.3854 44.3038C64.3516 41.5582 62.8813 39.016 60.5153 37.6602L48.6852 30.8132C47.5867 30.1691 46.3192 29.8302 45.0179 29.7963C44.832 29.7963 44.663 29.7963 44.4771 29.8132C43.5645 29.8641 42.7026 30.0335 41.8914 30.3556C41.5703 30.4911 41.2661 30.6437 40.9618 30.8132L29.2839 37.5754C29.0135 37.728 28.76 37.8974 28.5234 38.0839C28.5234 38.0839 28.422 38.1517 28.4051 38.1517C27.4587 38.8465 26.7151 39.7448 26.1912 40.7447C26.1574 40.8125 26.1067 40.8803 26.0729 40.9481C26.0391 41.0159 26.0053 41.0837 25.9884 41.1515C25.5152 42.1853 25.2616 43.3547 25.2616 44.5919V57.9131C25.2616 58.1504 25.2785 58.4046 25.3123 58.7097C25.3123 58.8622 25.3461 59.0317 25.3799 59.2181C25.5151 60.1333 25.8194 60.9976 26.2419 61.7773C26.9348 63.0653 27.9657 64.133 29.2332 64.8618L40.8604 71.5902C41.2829 71.8275 41.6041 71.98 41.9252 72.1156C42.7364 72.4545 43.5983 72.641 44.4771 72.6749C44.5109 72.6749 44.5447 72.6749 44.5785 72.6749C45.4066 72.6918 46.2516 72.6071 47.0628 72.3529C47.6205 72.1834 48.1782 71.9461 48.6852 71.641L60.4308 64.8449C61.6307 64.15 62.6278 63.1501 63.3207 61.9467C64.0136 60.7434 64.3854 59.3706 64.3854 57.9978V44.3886Z" fill="var(--fill-0, #000091)"/>
<path d="M25.2616 69.5678V91.1536L43.9167 101.955V80.3691L25.2616 69.5678Z" fill="var(--fill-0, #000091)"/>
<path d="M61.8964 36.5994C61.8964 36.5994 62.0489 36.7176 62.1168 36.7682C62.1168 36.7682 62.1507 36.7851 62.1676 36.8019C62.2863 36.8863 62.405 36.9876 62.5237 37.072C62.5237 37.072 62.5406 37.0889 62.5576 37.1057C62.5745 37.1226 62.6084 37.1395 62.6254 37.1564C62.761 37.2745 62.9136 37.3926 63.0323 37.5108C63.0662 37.5445 63.1001 37.5783 63.134 37.612C63.2188 37.6964 63.3035 37.7808 63.3883 37.8652C63.4222 37.899 63.4561 37.9327 63.4731 37.9496C63.5917 38.0846 63.7104 38.2196 63.8291 38.3546C63.8969 38.4221 63.9478 38.5065 63.9986 38.574C64.0325 38.6247 64.0834 38.6753 64.1173 38.7259C64.1512 38.7597 64.1851 38.8103 64.219 38.8441C64.3377 38.996 64.4394 39.1647 64.5411 39.3335C64.6429 39.5023 64.7446 39.6542 64.8463 39.8229C64.948 40.0086 65.0328 40.1942 65.1345 40.3799C65.2193 40.5487 65.2871 40.7006 65.3549 40.8693C65.4227 41.0212 65.4736 41.19 65.5244 41.3419C65.5244 41.3756 65.5414 41.3925 65.5583 41.4263C65.5583 41.46 65.5753 41.4938 65.5923 41.5107C65.6431 41.6626 65.694 41.8144 65.7448 41.9663C65.8126 42.2195 65.8635 42.4727 65.8974 42.7427C65.8974 42.7427 65.8974 42.7596 65.8974 42.7764C65.8974 42.8102 65.9144 42.8608 65.9144 42.8946C65.9144 42.979 65.9483 43.0465 65.9652 43.1309C66.0161 43.519 66.05 43.9241 66.05 44.3291V57.4427L68.6609 58.9447V37.3589L49.8763 26.5575V29.646L61.3199 36.2281C61.5064 36.3294 61.6929 36.4475 61.8794 36.5825L61.8964 36.5994Z" fill="var(--fill-0, #000091)"/>
<path d="M0 26.5575V48.2297L18.7846 59.0743V37.4021L0 26.5575Z" fill="var(--fill-0, #000091)"/>
<path d="M64.195 63.6315C64.0434 63.8521 63.8748 64.0387 63.7063 64.2423C63.5884 64.378 63.4704 64.5137 63.3524 64.6494C63.1671 64.853 62.948 65.0226 62.7458 65.2093C62.6447 65.2941 62.5435 65.3959 62.4424 65.4977L65.6443 67.3638C65.8971 67.5165 66.0656 67.7879 66.0656 68.0933V86.1946L68.6608 87.7045V66.0066L64.3298 63.4789C64.3298 63.4789 64.2456 63.5806 64.2119 63.6315H64.195Z" fill="var(--fill-0, #000091)"/>
<path d="M40.7972 29.019C40.7972 29.019 40.9151 28.9852 40.9824 28.9514C41.3192 28.7995 41.6896 28.6813 42.0431 28.5801C42.3294 28.4957 42.6156 28.4281 42.9187 28.3775C43.2049 28.3268 43.4743 28.2762 43.7605 28.2424C43.8615 28.2424 43.9457 28.2087 44.0467 28.1918V23.1107L25.3917 12.3071V15.7002L40.3763 24.3768C40.6289 24.5287 40.7972 24.7988 40.7972 25.1027V29.019Z" fill="var(--fill-0, #000091)"/>
<path d="M0 76.7849L18.7846 87.575V65.9779L0 55.1878V76.7849Z" fill="var(--fill-0, #000091)"/>
<path d="M89 76.7849V55.1878L70.345 65.9779V87.575L89 76.7849Z" fill="var(--fill-0, #000091)"/>
<path d="M45.601 101.955L64.3856 91.1536V69.5678L45.601 80.3691V101.955Z" fill="var(--fill-0, #000091)"/>
<path d="M20.4687 59.0743L23.5498 57.2782V44.4341C23.5498 41.4857 24.9473 38.6729 27.3044 36.8938C27.3044 36.8938 27.3381 36.8768 27.3549 36.8599C27.3549 36.8599 27.3718 36.8599 27.3886 36.8429C27.4223 36.826 27.4559 36.7921 27.4728 36.7921C27.7758 36.5718 27.9947 36.4193 28.2473 36.2668L39.1238 29.9464V26.5575L20.4687 37.4021V59.0743Z" fill="var(--fill-0, #000091)"/>
<path d="M89 48.2297V26.5575L70.345 37.4021V59.0743L89 48.2297Z" fill="var(--fill-0, #000091)"/>
<path d="M46.0456 28.221C46.2308 28.2378 46.3992 28.2883 46.5844 28.3052C46.8033 28.3389 47.039 28.3894 47.2578 28.4399C47.4599 28.4904 47.6451 28.5578 47.8303 28.6251C47.9818 28.6757 48.1333 28.7093 48.2849 28.7599V25.0719C48.2849 24.7688 48.4532 24.4993 48.7058 24.3478L64.5154 15.2205V12.3071L45.8604 23.0848V28.1873C45.8604 28.1873 45.9951 28.221 46.0624 28.221H46.0456Z" fill="var(--fill-0, #000091)"/>
<path d="M23.7185 67.673C23.7693 67.5889 23.8539 67.5216 23.9385 67.4543C23.9555 67.4543 23.9724 67.4207 23.9893 67.4039L27.2053 65.5533C27.2053 65.5533 27.0699 65.4187 26.9852 65.3514C26.7144 65.1159 26.4436 64.8804 26.1897 64.6112C26.0712 64.4934 25.9697 64.3588 25.8681 64.2411C25.665 64.0055 25.4788 63.77 25.3096 63.5177C25.2757 63.4672 25.2249 63.4167 25.1741 63.3494L25.0895 63.3999L20.4687 66.058V87.5751L23.5662 85.7918V68.1273C23.5662 67.9927 23.617 67.8581 23.6677 67.7403C23.6677 67.7067 23.7016 67.6899 23.7185 67.6562V67.673Z" fill="var(--fill-0, #000091)"/>
<path d="M38.3468 25.0592L19.6354 14.2504L0.907177 25.0592L19.6354 35.885L38.3468 25.0592Z" fill="var(--fill-0, #000091)"/>
<path d="M63.7385 10.8258L44.9539 0L26.1693 10.8258L44.9539 21.6347L63.7385 10.8258Z" fill="var(--fill-0, #000091)"/>
<path d="M68.2609 35.1577L69.4948 35.885L88.2231 25.0592L69.4948 14.2504L50.7834 25.0592L58.6939 29.6433L68.2609 35.1577Z" fill="var(--fill-0, #000091)"/>
<path d="M69.0829 61.2031L65.9576 59.4041C65.9407 59.5218 65.89 59.6563 65.8731 59.774C65.8224 60.0598 65.7549 60.3456 65.6873 60.6146C65.6366 60.7828 65.569 60.9509 65.5183 61.1022C65.4339 61.3544 65.3494 61.5898 65.2312 61.842C65.1974 61.9092 65.1805 61.9597 65.1636 62.0269L69.5052 64.5153L88.2233 53.7549L85.5372 52.2081L69.9445 61.1695C69.8093 61.2367 69.6742 61.2872 69.5221 61.2872C69.3701 61.2872 69.2349 61.2535 69.0998 61.1695L69.0829 61.2031Z" fill="var(--fill-0, #000091)"/>
<path d="M49.4503 73.078C48.8249 73.4311 48.1488 73.7169 47.4727 73.9355C46.9994 74.0868 46.5093 74.1709 46.0191 74.2381C45.85 74.2549 45.681 74.2549 45.512 74.2717C45.2585 74.2885 45.0218 74.3222 44.7683 74.3222C44.633 74.3222 44.4978 74.3222 44.3626 74.3222C44.3626 74.3222 44.3457 74.3222 44.3288 74.3222C43.7879 74.3054 43.2639 74.2381 42.7399 74.1204C42.216 74.0027 41.7089 73.8514 41.2187 73.6497C40.8299 73.4815 40.4412 73.2966 40.0524 73.0948L28.7275 66.5882L27.8317 67.1094L26.04 68.135L44.7683 78.8953L46.7966 77.7184L48.7066 76.6256L52.5266 74.4231L63.4796 68.135L61.6879 67.1094L60.7921 66.5882L49.4672 73.0948L49.4503 73.078Z" fill="var(--fill-0, #000091)"/>
<path d="M23.6962 59.4377C23.6962 59.32 23.6624 59.2192 23.6455 59.1015L20.0445 61.1695C19.9093 61.2367 19.774 61.2872 19.6219 61.2872C19.4697 61.2872 19.3345 61.2535 19.1993 61.1695L3.5952 52.2081L0.907177 53.7549L19.6388 64.5153L24.3555 61.8084C24.0681 61.1358 23.8483 60.3624 23.7131 59.505C23.7131 59.505 23.7131 59.4713 23.7131 59.4545L23.6962 59.4377Z" fill="var(--fill-0, #000091)"/>
</g>
</g>
</svg>
