<svg width="54" height="74" viewBox="0 0 54 74" fill="none" xmlns="http://www.w3.org/2000/svg">
<path d="M39.2203 37.2017C38.0072 37.0547 37.6028 36.3194 37.4558 35.2534C37.1617 33.158 36.7941 31.0627 36.4265 28.9306H36.0221C34.8826 29.1879 33.6695 29.0777 32.6034 28.563C32.4564 28.4895 32.2726 28.4527 32.0888 28.4527C31.905 28.4527 31.7212 28.5263 31.6109 28.6733C29.1847 30.5113 27.7143 32.8272 28.1186 35.9518C28.3024 36.9444 28.6333 37.8634 29.1479 38.7456C30.9124 42.0541 33.0078 45.1419 35.434 48.0093C35.6545 48.3033 35.9118 48.5239 36.2059 48.6709C36.5 48.818 36.8676 48.8915 37.1985 48.8915C42.1979 48.965 47.1973 49.112 52.1967 49.2223C52.4541 49.2223 52.7114 49.2223 52.9687 49.3326C53.2628 49.4061 53.5201 49.59 53.7039 49.8105C53.8877 50.0678 53.998 50.3251 53.998 50.656C53.998 50.9868 53.851 51.2809 53.6304 51.5015C53.4098 51.7221 53.1158 51.9058 52.8217 51.9426C52.4541 51.9794 52.0865 51.9794 51.7189 51.9426L37.1985 51.6485H36.3897C36.2795 51.9426 36.1692 52.1632 36.0589 52.4205C36.1692 52.494 36.2427 52.5676 36.3162 52.5676C37.9337 52.6411 39.5144 52.7146 41.0951 52.7514C43.8889 52.8249 46.6827 52.9351 49.5132 53.0087C49.9176 53.0087 50.322 53.0822 50.6896 53.1557C50.9837 53.2292 51.2777 53.3762 51.4983 53.6336C51.6821 53.8909 51.7924 54.185 51.7924 54.5158C51.7924 54.8099 51.6453 55.104 51.4248 55.3246C51.2042 55.5451 50.9469 55.6922 50.6528 55.7657C50.4322 55.8024 50.1749 55.8392 49.9544 55.8024L36.0589 55.3246C35.7648 55.3246 35.4707 55.2878 35.0664 55.251L33.4121 59.8828C33.5959 59.9931 33.8165 60.1034 34.0003 60.1769L47.8222 65.1763C48.1531 65.2866 48.4472 65.3969 48.7412 65.5439C49.1089 65.691 49.4397 65.9483 49.6235 66.3159C49.8073 66.6835 49.8808 67.0879 49.7706 67.4922C49.5132 68.8891 49.2559 70.2493 48.9618 71.6094C48.631 73.0798 47.8958 73.4842 46.4989 73.0431C42.492 71.7564 38.5218 70.4331 34.5149 69.1097L14.0026 62.3825C12.0543 61.7209 11.797 61.3165 12.3484 59.2947C12.4587 58.7433 12.6057 58.1918 12.7895 57.6772C13.5982 55.8392 13.1939 53.9644 12.9366 52.0896C12.3484 47.5314 11.9808 42.9363 12.3851 38.3413C12.8998 32.4596 14.9951 27.2029 18.9285 22.7549C20.2886 21.1742 22.0532 19.9979 24.0015 19.2994C26.2438 18.4907 28.5598 17.829 30.8389 17.1306C31.1697 17.0203 31.6476 16.91 31.905 17.057C32.7872 17.5349 33.5592 17.2041 34.3679 16.9468C34.3679 16.8732 34.4414 16.8365 34.4414 16.763C34.4414 15.219 34.7355 14.7779 36.2427 14.5941C38.7056 14.2632 41.1318 13.9324 43.558 13.6016C44.9549 13.4178 45.5063 13.8221 45.8004 15.219C46.6091 19.0421 47.3811 22.8652 48.1531 26.6515C48.5575 28.563 48.9251 30.4378 49.2927 32.3494C49.4765 33.2316 49.6235 34.1138 48.7045 34.8123C48.5575 34.9226 48.5207 35.2902 48.5207 35.5475C48.5207 36.1724 48.5575 36.7973 48.5207 37.459C48.5207 38.4515 48.1163 38.9662 47.1606 39.15C45.2858 39.5176 43.4477 39.8852 41.573 40.216C40.6172 40.3631 39.9555 39.9587 39.6247 39.0397C39.4409 38.5251 39.2938 37.9737 39.0733 37.312L39.2203 37.2017ZM29.6993 20.2552C29.5155 20.2552 29.3317 20.2919 29.1479 20.3654C27.604 20.9168 26.06 21.4315 24.5529 22.0564C23.0457 22.7181 21.7223 23.7107 20.693 24.9973C19.2961 26.6515 18.1198 28.4895 17.2375 30.4745C15.8039 33.7462 15.0687 37.312 15.0687 40.8777C15.0687 43.5612 15.2525 46.2815 15.4363 48.965C15.5465 50.5457 15.8039 52.1264 16.0244 53.7439L30.7286 59.0374C30.8021 58.9271 30.8757 58.7801 30.9124 58.633C31.8314 56.0598 32.7137 53.4866 33.6327 50.9133C33.7062 50.7295 33.7062 50.5457 33.6327 50.3987C33.5959 50.2149 33.4857 50.0678 33.3386 49.9575C30.7654 46.9064 28.4862 43.598 26.5379 40.1058C24.4426 36.393 24.7367 32.1655 27.4202 28.8939C28.1554 27.9749 29.0376 27.1294 29.7728 26.3574C29.589 25.3649 29.2582 24.4091 29.2214 23.4166C29.2214 22.4608 29.4788 21.3947 29.6258 20.2919L29.6993 20.2552ZM15.1789 59.7726L46.4621 70.0655L46.9032 67.7495C41.72 65.8748 36.6103 64 31.4638 62.162C26.3174 60.324 21.2444 58.4124 16.0244 56.6479C15.7303 57.714 15.473 58.6698 15.1789 59.7358V59.7726ZM37.4558 17.0938C41.573 19.2994 42.1611 24.2253 38.9997 27.3867C39.3673 29.6658 39.7349 31.8714 40.1025 34.1138L46.6459 32.4596C45.5431 27.0191 44.4403 21.6888 43.3375 16.3218L37.4558 17.1306V17.0938ZM32.0152 23.5269C32.0152 25.3281 33.8533 26.7617 35.8751 26.0633C36.6838 25.7325 37.3823 25.1443 37.7866 24.3356C38.191 23.5636 38.338 22.6446 38.1175 21.7624C38.0072 21.2477 37.7499 20.8066 37.419 20.439C37.0514 20.0714 36.6103 19.7773 36.1324 19.6302C35.6545 19.4832 35.1031 19.4832 34.6252 19.5935C34.1106 19.7038 33.6695 19.9611 33.3019 20.3287C32.4564 21.0639 31.9785 22.0197 32.0152 23.4901V23.5269ZM42.0141 36.4665C42.0141 37.1649 42.3449 37.2017 42.7493 37.1282C43.7418 36.9444 44.7711 36.7238 45.7637 36.5032C45.8004 36.5032 45.8739 36.4297 45.9475 36.3194L45.8372 35.474L41.9773 36.4297L42.0141 36.4665Z" fill="#102185"/>
<path d="M7.75328 23.6739C6.98131 23.6739 6.46666 23.1592 6.28286 22.3505C6.0623 21.1742 5.76822 19.9979 5.43737 18.8583C4.84921 17.0203 3.85666 15.2925 2.53329 13.8956C2.01864 13.4177 1.504 12.9766 0.915828 12.5355C-0.260507 11.6165 -0.297265 10.7342 0.768789 9.70494C1.46724 9.0065 2.20244 8.30807 2.93765 7.60962C4.22427 6.32301 5.10652 4.70557 5.47413 2.94107C5.62117 2.35291 5.73145 1.76471 5.91526 1.21331C6.17258 0.404581 6.68722 0.000244141 7.31215 0.000244141C7.93708 0.000244141 8.48849 0.47812 8.74582 1.32361C8.81934 1.65445 8.89286 1.98528 8.92962 2.31612C9.07666 3.30865 9.44426 4.26441 9.99567 5.1099C10.5471 5.95539 11.2823 6.65387 12.1278 7.16851C12.8997 7.6464 13.6717 8.08751 14.4804 8.49188C15.7303 9.15356 15.9509 10.0725 15.0686 11.1754C14.5172 11.8738 13.9658 12.5723 13.3409 13.2707C11.4293 15.4396 10.0324 17.8658 9.5913 20.7698C9.48102 21.5786 9.2237 22.3138 8.81933 23.0122C8.70905 23.196 8.52525 23.343 8.34145 23.4533C8.15765 23.5636 7.93708 23.6371 7.71652 23.6739H7.75328ZM7.71652 17.057C8.74581 14.4103 10.4 12.4252 12.1645 10.3666C10.1059 9.4844 8.41496 7.94045 7.31215 5.99216C6.4299 8.05074 5.033 9.55791 3.4523 10.9548C5.4006 12.5723 6.65046 14.6308 7.71652 17.057Z" fill="#102185"/>
</svg>
